<svg width="40" height="39" viewBox="0 0 40 39" fill="none" xmlns="http://www.w3.org/2000/svg">
<path d="M27.9916 18.7336C30.168 19.2083 31.7606 20.3221 32.7693 22.0749C33.7858 23.7913 34.0574 25.7632 33.5839 27.9908C32.9008 31.2043 31.2001 33.7605 28.4818 35.6594C25.8087 37.5218 22.4187 38.453 18.3121 38.453H5.24819e-05L8.17348 9.79797e-05H25.8695C29.8641 9.79797e-05 32.7913 0.894776 34.651 2.68413C36.548 4.47349 37.1705 6.90191 36.5184 9.96938C36.0372 12.2335 35.0214 14.1141 33.4712 15.6113C31.9583 17.1086 30.1317 18.1493 27.9916 18.7336ZM14.4428 15.5566H20.7149C22.2829 15.5566 23.5474 15.2279 24.5084 14.5706C25.5146 13.8768 26.1574 12.8725 26.4368 11.5579C26.7162 10.2433 26.5003 9.23903 25.7892 8.5452C25.1153 7.85136 23.9944 7.50445 22.4264 7.50445H16.1544L14.4428 15.5566ZM18.2388 30.8939C19.8441 30.8939 21.1499 30.547 22.156 29.8532C23.2073 29.1228 23.8765 28.0821 24.1637 26.7309C24.4509 25.3798 24.2093 24.3208 23.439 23.5539C22.706 22.787 21.5368 22.4036 19.9315 22.4036H12.9875L11.1828 30.8939H18.2388Z" fill="#F1C40E"/>
</svg>
