<svg width="32" height="40" viewBox="0 0 32 40" fill="none" xmlns="http://www.w3.org/2000/svg">
<path d="M23.7998 19.152C26.0772 19.6373 27.9065 20.776 29.2878 22.568C30.6692 24.3227 31.3598 26.3387 31.3598 28.616C31.3598 31.9013 30.2025 34.5147 27.8878 36.456C25.6105 38.36 22.4185 39.312 18.3118 39.312H-0.000167817V1.04904e-05H17.6958C21.6905 1.04904e-05 24.8078 0.914677 27.0478 2.74401C29.3252 4.57334 30.4638 7.05601 30.4638 10.192C30.4638 12.5067 29.8478 14.4293 28.6158 15.96C27.4212 17.4907 25.8158 18.5547 23.7998 19.152ZM9.57583 15.904H15.8478C17.4158 15.904 18.6105 15.568 19.4318 14.896C20.2905 14.1867 20.7198 13.16 20.7198 11.816C20.7198 10.472 20.2905 9.44534 19.4318 8.73601C18.6105 8.02668 17.4158 7.67201 15.8478 7.67201H9.57583V15.904ZM16.6318 31.584C18.2372 31.584 19.4692 31.2293 20.3278 30.52C21.2238 29.7733 21.6718 28.7093 21.6718 27.328C21.6718 25.9467 21.2052 24.864 20.2718 24.08C19.3758 23.296 18.1252 22.904 16.5198 22.904H9.57583V31.584H16.6318Z" fill="#F1C40E"/>
</svg>
